<svg width="21" height="15" viewBox="0 0 21 15" fill="none" xmlns="http://www.w3.org/2000/svg">
<path d="M13.6516 7.54486C13.6516 8.34051 13.3355 9.10357 12.7729 9.66618C12.2103 10.2288 11.4473 10.5449 10.6516 10.5449C9.85596 10.5449 9.0929 10.2288 8.53029 9.66618C7.96768 9.10357 7.65161 8.34051 7.65161 7.54486C7.65161 6.74921 7.96768 5.98615 8.53029 5.42354C9.0929 4.86093 9.85596 4.54486 10.6516 4.54486C11.4473 4.54486 12.2103 4.86093 12.7729 5.42354C13.3355 5.98615 13.6516 6.74921 13.6516 7.54486Z" stroke="black" stroke-width="0.5" stroke-linecap="round" stroke-linejoin="round"/>
<path d="M1.10962 7.54486C2.38362 3.48786 6.17462 0.544861 10.6516 0.544861C15.1296 0.544861 18.9196 3.48786 20.1936 7.54486C18.9196 11.6019 15.1296 14.5449 10.6516 14.5449C6.17462 14.5449 2.38362 11.6019 1.10962 7.54486Z" stroke="black" stroke-width="0.5" stroke-linecap="round" stroke-linejoin="round"/>
</svg>
